<svg xmlns="http://www.w3.org/2000/svg">
  <defs>
    <symbol id="email" viewBox="0 0 512 512">
      <path
        d="M64 112c-8.8 0-16 7.2-16 16v22.1L220.5 291.7c20.7 17 50.4 17 71.1 0L464 150.1V128c0-8.8-7.2-16-16-16H64zM48 212.2V384c0 8.8 7.2 16 16 16H448c8.8 0 16-7.2 16-16V212.2L322 328.8c-38.4 31.5-93.7 31.5-132 0L48 212.2zM0 128C0 92.7 28.7 64 64 64H448c35.3 0 64 28.7 64 64V384c0 35.3-28.7 64-64 64H64c-35.3 0-64-28.7-64-64V128z" />
    </symbol>
    <symbol id="github" viewBox="0 0 496 512">
      <path
        d="M165.9 397.4c0 2-2.3 3.6-5.2 3.6-3.3 .3-5.6-1.3-5.6-3.6 0-2 2.3-3.6 5.2-3.6 3-.3 5.6 1.3 5.6 3.6zm-31.1-4.5c-.7 2 1.3 4.3 4.3 4.9 2.6 1 5.6 0 6.2-2s-1.3-4.3-4.3-5.2c-2.6-.7-5.5 .3-6.2 2.3zm44.2-1.7c-2.9 .7-4.9 2.6-4.6 4.9 .3 2 2.9 3.3 5.9 2.6 2.9-.7 4.9-2.6 4.6-4.6-.3-1.9-3-3.2-5.9-2.9zM244.8 8C106.1 8 0 113.3 0 252c0 110.9 69.8 205.8 169.5 239.2 12.8 2.3 17.3-5.6 17.3-12.1 0-6.2-.3-40.4-.3-61.4 0 0-70 15-84.7-29.8 0 0-11.4-29.1-27.8-36.6 0 0-22.9-15.7 1.6-15.4 0 0 24.9 2 38.6 25.8 21.9 38.6 58.6 27.5 72.9 20.9 2.3-16 8.8-27.1 16-33.7-55.9-6.2-112.3-14.3-112.3-110.5 0-27.5 7.6-41.3 23.6-58.9-2.6-6.5-11.1-33.3 2.6-67.9 20.9-6.5 69 27 69 27 20-5.6 41.5-8.5 62.8-8.5s42.8 2.9 62.8 8.5c0 0 48.1-33.6 69-27 13.7 34.7 5.2 61.4 2.6 67.9 16 17.7 25.8 31.5 25.8 58.9 0 96.5-58.9 104.2-114.8 110.5 9.2 7.9 17 22.9 17 46.4 0 33.7-.3 75.4-.3 83.6 0 6.5 4.6 14.4 17.3 12.1C428.2 457.8 496 362.9 496 252 496 113.3 383.5 8 244.8 8zM97.2 352.9c-1.3 1-1 3.3 .7 5.2 1.6 1.6 3.9 2.3 5.2 1 1.3-1 1-3.3-.7-5.2-1.6-1.6-3.9-2.3-5.2-1zm-10.8-8.1c-.7 1.3 .3 2.9 2.3 3.9 1.6 1 3.6 .7 4.3-.7 .7-1.3-.3-2.9-2.3-3.9-2-.6-3.6-.3-4.3 .7zm32.4 35.6c-1.6 1.3-1 4.3 1.3 6.2 2.3 2.3 5.2 2.6 6.5 1 1.3-1.3 .7-4.3-1.3-6.2-2.2-2.3-5.2-2.6-6.5-1zm-11.4-14.7c-1.6 1-1.6 3.6 0 5.9 1.6 2.3 4.3 3.3 5.6 2.3 1.6-1.3 1.6-3.9 0-6.2-1.4-2.3-4-3.3-5.6-2z" />
    </symbol>
    <symbol id="linkedin" viewBox="0 0 448 512">
      <path
        d="M416 32H31.9C14.3 32 0 46.5 0 64.3v383.4C0 465.5 14.3 480 31.9 480H416c17.6 0 32-14.5 32-32.3V64.3c0-17.8-14.4-32.3-32-32.3zM135.4 416H69V202.2h66.5V416zm-33.2-243c-21.3 0-38.5-17.3-38.5-38.5S80.9 96 102.2 96c21.2 0 38.5 17.3 38.5 38.5 0 21.3-17.2 38.5-38.5 38.5zm282.1 243h-66.4V312c0-24.8-.5-56.7-34.5-56.7-34.6 0-39.9 27-39.9 54.9V416h-66.4V202.2h63.7v29.2h.9c8.9-16.8 30.6-34.5 62.9-34.5 67.2 0 79.7 44.3 79.7 101.9V416z" />
    </symbol>
    <symbol id="twitter-x" viewBox="0 0 512 512">
      <path
        d="M389.2 48h70.6L305.6 224.2 487 464H345L233.7 318.6 106.5 464H35.8L200.7 275.5 26.8 48H172.4L272.9 180.9 389.2 48zM364.4 421.8h39.1L151.1 88h-42L364.4 421.8z" />
    </symbol>
    <symbol id="discord" viewBox="0 0 16 16" xmlns="http://www.w3.org/2000/svg">
      <g id="SVGRepo_bgCarrier" stroke-width="0"></g>
      <g id="SVGRepo_tracerCarrier" stroke-linecap="round" stroke-linejoin="round"></g>
      <g id="SVGRepo_iconCarrier">
        <path
          d="M6.552 6.712c-.456 0-.816.4-.816.888s.368.888.816.888c.456 0 .816-.4.816-.888.008-.488-.36-.888-.816-.888zm2.92 0c-.456 0-.816.4-.816.888s.368.888.816.888c.456 0 .816-.4.816-.888s-.36-.888-.816-.888z"></path>
        <path
          d="M13.36 0H2.64C1.736 0 1 .736 1 1.648v10.816c0 .912.736 1.648 1.64 1.648h9.072l-.424-1.48 1.024.952.968.896L15 16V1.648C15 .736 14.264 0 13.36 0zm-3.088 10.448s-.288-.344-.528-.648c1.048-.296 1.448-.952 1.448-.952-.328.216-.64.368-.92.472-.4.168-.784.28-1.16.344a5.604 5.604 0 0 1-2.072-.008 6.716 6.716 0 0 1-1.176-.344 4.688 4.688 0 0 1-.584-.272c-.024-.016-.048-.024-.072-.04-.016-.008-.024-.016-.032-.024-.144-.08-.224-.136-.224-.136s.384.64 1.4.944c-.24.304-.536.664-.536.664-1.768-.056-2.44-1.216-2.44-1.216 0-2.576 1.152-4.664 1.152-4.664 1.152-.864 2.248-.84 2.248-.84l.08.096c-1.44.416-2.104 1.048-2.104 1.048s.176-.096.472-.232c.856-.376 1.536-.48 1.816-.504.048-.008.088-.016.136-.016a6.521 6.521 0 0 1 4.024.752s-.632-.6-1.992-1.016l.112-.128s1.096-.024 2.248.84c0 0 1.152 2.088 1.152 4.664 0 0-.68 1.16-2.448 1.216z"></path>
      </g>
    </symbol>
    <symbol id="facebook" stroke-width="2" stroke-linecap="round" stroke-linejoin="round"
      fill="none">
      <path d="M7 10v4h3v7h4v-7h3l1 -4h-4v-2a1 1 0 0 1 1 -1h3v-4h-3a5 5 0 0 0 -5 5v2h-3" />
    </symbol>
    <symbol id="pinterest" stroke-width="2" stroke-linecap="round" stroke-linejoin="round"
      fill="none">
      <path d="M8 20l4 -9" />
      <path d="M10.7 14c.437 1.263 1.43 2 2.55 2c2.071 0 3.75 -1.554 3.75 -4a5 5 0 1 0 -9.7 1.7" />
      <path d="M12 12m-9 0a9 9 0 1 0 18 0a9 9 0 1 0 -18 0" />
    </symbol>
    <symbol id="telegram" stroke-width="2" stroke-linecap="round" stroke-linejoin="round" fill="none">
      <path d="M15 10l-4 4l6 6l4 -16l-18 7l4 2l2 6l3 -4"/>
    </symbol>
    <symbol id="whatsapp" stroke-width="2" stroke-linecap="round" stroke-linejoin="round"
      fill="none">
      <path d="M3 21l1.65 -3.8a9 9 0 1 1 3.4 2.9l-5.05 .9" />
      <path
        d="M9 10a.5 .5 0 0 0 1 0v-1a.5 .5 0 0 0 -1 0v1a5 5 0 0 0 5 5h1a.5 .5 0 0 0 0 -1h-1a.5 .5 0 0 0 0 1" />
    </symbol>
  </defs>
</svg>